<mxfile host="app.diagrams.net" modified="2020-11-19T15:22:43.894Z" agent="5.0 (Windows NT 10.0; Win64; x64) AppleWebKit/537.36 (KHTML, like Gecko) Chrome/86.0.4240.198 Safari/537.36" etag="2E_6w4qq57rBLPm8wGpz" version="13.10.0" type="github">
  <diagram id="CTPIhycNoFYQdda1S74I" name="Page-1">
    <mxGraphModel dx="1038" dy="580" grid="1" gridSize="10" guides="1" tooltips="1" connect="1" arrows="1" fold="1" page="1" pageScale="1" pageWidth="850" pageHeight="1100" math="0" shadow="0">
      <root>
        <mxCell id="0" />
        <mxCell id="1" parent="0" />
        <mxCell id="kPk_biDiBXZcE4BQ75P0-6" value="" style="edgeStyle=orthogonalEdgeStyle;rounded=0;orthogonalLoop=1;jettySize=auto;html=1;" edge="1" parent="1" source="kPk_biDiBXZcE4BQ75P0-1" target="kPk_biDiBXZcE4BQ75P0-2">
          <mxGeometry relative="1" as="geometry" />
        </mxCell>
        <mxCell id="kPk_biDiBXZcE4BQ75P0-1" value="Start" style="rounded=1;whiteSpace=wrap;html=1;" vertex="1" parent="1">
          <mxGeometry x="365" y="100" width="120" height="60" as="geometry" />
        </mxCell>
        <mxCell id="kPk_biDiBXZcE4BQ75P0-7" value="" style="edgeStyle=orthogonalEdgeStyle;rounded=0;orthogonalLoop=1;jettySize=auto;html=1;" edge="1" parent="1" source="kPk_biDiBXZcE4BQ75P0-2" target="kPk_biDiBXZcE4BQ75P0-3">
          <mxGeometry relative="1" as="geometry" />
        </mxCell>
        <mxCell id="kPk_biDiBXZcE4BQ75P0-2" value="print (Hello World)" style="rhombus;whiteSpace=wrap;html=1;" vertex="1" parent="1">
          <mxGeometry x="373" y="220" width="105" height="110" as="geometry" />
        </mxCell>
        <mxCell id="kPk_biDiBXZcE4BQ75P0-3" value="Stop" style="rounded=0;whiteSpace=wrap;html=1;" vertex="1" parent="1">
          <mxGeometry x="365" y="410" width="120" height="60" as="geometry" />
        </mxCell>
      </root>
    </mxGraphModel>
  </diagram>
</mxfile>
